<svg id="svg" version="1.1" xmlns="http://www.w3.org/2000/svg" xmlns:xlink="http://www.w3.org/1999/xlink" width="400" height="400" viewBox="0, 0, 400,400"><g id="svgg"><path id="path0" d="M37.398 0.608 C 36.965 1.270,34.916 1.414,32.100 0.979 C 30.464 0.726,30.400 0.756,30.400 1.769 L 30.400 2.822 27.778 2.554 C 25.322 2.302,25.141 2.339,24.931 3.142 C 24.808 3.614,24.458 4.000,24.153 4.000 C 23.827 4.000,23.600 4.418,23.600 5.018 C 23.600 5.965,23.502 6.018,22.200 5.774 C 20.981 5.545,20.800 5.614,20.800 6.307 C 20.800 7.597,19.761 8.221,18.625 7.613 C 17.587 7.058,16.800 7.321,16.800 8.224 C 16.800 8.541,16.440 8.800,16.000 8.800 C 15.467 8.800,15.200 9.067,15.200 9.600 C 15.200 10.133,14.933 10.400,14.400 10.400 C 13.867 10.400,13.600 10.667,13.600 11.200 C 13.600 11.733,13.333 12.000,12.800 12.000 C 12.267 12.000,12.000 12.267,12.000 12.800 C 12.000 13.333,11.733 13.600,11.200 13.600 C 10.667 13.600,10.400 13.867,10.400 14.400 C 10.400 14.933,10.133 15.200,9.600 15.200 C 9.067 15.200,8.800 15.467,8.800 16.000 C 8.800 16.440,8.541 16.800,8.224 16.800 C 7.321 16.800,7.058 17.587,7.613 18.625 C 8.221 19.761,7.597 20.800,6.307 20.800 C 5.614 20.800,5.545 20.981,5.774 22.200 C 6.018 23.502,5.965 23.600,5.018 23.600 C 4.418 23.600,4.000 23.827,4.000 24.153 C 4.000 24.458,3.640 24.801,3.200 24.916 C 2.319 25.146,2.065 27.426,2.772 28.748 C 3.230 29.603,2.859 30.257,1.800 30.463 C 1.072 30.604,1.000 30.936,1.000 34.174 C 1.000 36.662,0.850 37.780,0.500 37.898 C 0.104 38.032,0.000 47.936,0.000 85.633 L 0.000 133.200 200.000 133.200 L 400.000 133.200 400.000 86.043 C 400.000 46.057,399.915 38.853,399.442 38.671 C 398.993 38.499,398.926 37.623,399.100 34.206 C 399.308 30.140,399.281 29.946,398.481 29.737 C 397.895 29.584,397.608 29.141,397.522 28.259 C 397.430 27.311,397.202 26.998,396.600 26.991 C 395.927 26.983,395.818 26.751,395.914 25.521 C 396.011 24.262,395.900 24.041,395.114 23.930 C 394.292 23.813,394.210 23.609,394.297 21.900 C 394.382 20.237,394.295 20.000,393.597 20.000 C 393.159 20.000,392.800 19.743,392.800 19.428 C 392.800 19.113,392.395 18.798,391.900 18.728 C 391.104 18.615,391.015 18.404,391.127 16.900 C 391.239 15.407,391.153 15.200,390.427 15.200 C 389.867 15.200,389.600 14.942,389.600 14.400 C 389.600 13.867,389.333 13.600,388.800 13.600 C 388.267 13.600,388.000 13.333,388.000 12.800 C 388.000 12.267,387.733 12.000,387.200 12.000 C 386.667 12.000,386.400 11.733,386.400 11.200 C 386.400 10.667,386.133 10.400,385.600 10.400 C 385.056 10.400,384.800 10.133,384.800 9.566 C 384.800 8.830,384.600 8.747,383.100 8.866 C 381.593 8.985,381.385 8.898,381.272 8.100 C 381.202 7.605,380.887 7.200,380.572 7.200 C 380.256 7.200,380.000 6.821,380.000 6.355 C 380.000 5.579,379.851 5.532,378.200 5.779 C 376.453 6.041,376.400 6.018,376.400 4.994 C 376.400 4.018,376.287 3.949,374.900 4.069 C 373.602 4.182,373.383 4.079,373.272 3.300 C 373.168 2.566,372.891 2.400,371.772 2.400 C 370.635 2.400,370.400 2.253,370.400 1.540 C 370.400 0.702,370.299 0.686,366.617 0.928 C 363.577 1.128,362.718 1.061,362.245 0.588 C 361.335 -0.322,37.994 -0.302,37.398 0.608 " stroke="none" fill="#fbf4fb" fill-rule="evenodd"></path><path id="path1" d="M32.800 0.392 C 32.800 0.946,34.610 1.334,35.800 1.036 C 37.496 0.610,36.906 0.000,34.800 0.000 C 33.700 0.000,32.800 0.177,32.800 0.392 M363.200 0.400 C 363.200 0.620,363.740 0.800,364.400 0.800 C 365.060 0.800,365.600 0.620,365.600 0.400 C 365.600 0.180,365.060 0.000,364.400 0.000 C 363.740 0.000,363.200 0.180,363.200 0.400 M28.072 1.700 C 28.268 3.081,30.000 3.196,30.000 1.828 C 30.000 0.991,29.809 0.800,28.972 0.800 C 28.135 0.800,27.968 0.967,28.072 1.700 M21.600 4.800 C 21.600 5.333,21.867 5.600,22.400 5.600 C 22.933 5.600,23.200 5.333,23.200 4.800 C 23.200 4.267,22.933 4.000,22.400 4.000 C 21.867 4.000,21.600 4.267,21.600 4.800 M376.800 4.800 C 376.800 5.333,377.067 5.600,377.600 5.600 C 378.133 5.600,378.400 5.333,378.400 4.800 C 378.400 4.267,378.133 4.000,377.600 4.000 C 377.067 4.000,376.800 4.267,376.800 4.800 M18.472 6.500 C 18.668 7.881,20.400 7.996,20.400 6.628 C 20.400 5.791,20.209 5.600,19.372 5.600 C 18.535 5.600,18.368 5.767,18.472 6.500 M391.200 17.600 C 391.200 18.133,391.467 18.400,392.000 18.400 C 392.533 18.400,392.800 18.133,392.800 17.600 C 392.800 17.067,392.533 16.800,392.000 16.800 C 391.467 16.800,391.200 17.067,391.200 17.600 M5.600 19.372 C 5.600 20.209,5.791 20.400,6.628 20.400 C 7.996 20.400,7.881 18.668,6.500 18.472 C 5.767 18.368,5.600 18.535,5.600 19.372 M4.000 22.400 C 4.000 22.933,4.267 23.200,4.800 23.200 C 5.333 23.200,5.600 22.933,5.600 22.400 C 5.600 21.867,5.333 21.600,4.800 21.600 C 4.267 21.600,4.000 21.867,4.000 22.400 M394.267 21.867 C 393.586 22.547,394.031 23.600,395.000 23.600 C 395.800 23.600,396.000 23.400,396.000 22.600 C 396.000 21.631,394.947 21.186,394.267 21.867 M396.000 25.600 C 396.000 26.133,396.267 26.400,396.800 26.400 C 397.333 26.400,397.600 26.133,397.600 25.600 C 397.600 25.067,397.333 24.800,396.800 24.800 C 396.267 24.800,396.000 25.067,396.000 25.600 M0.800 29.200 C 0.800 30.273,0.931 30.437,1.700 30.328 C 2.359 30.234,2.600 29.932,2.600 29.200 C 2.600 28.468,2.359 28.166,1.700 28.072 C 0.931 27.963,0.800 28.127,0.800 29.200 M0.000 35.600 C 0.000 36.260,0.180 36.800,0.400 36.800 C 0.620 36.800,0.800 36.260,0.800 35.600 C 0.800 34.940,0.620 34.400,0.400 34.400 C 0.180 34.400,0.000 34.940,0.000 35.600 M399.200 37.000 C 399.200 37.550,399.380 38.000,399.600 38.000 C 399.820 38.000,400.000 37.550,400.000 37.000 C 400.000 36.450,399.820 36.000,399.600 36.000 C 399.380 36.000,399.200 36.450,399.200 37.000 M0.000 314.400 C 0.000 346.133,0.136 362.400,0.400 362.400 C 0.640 362.400,0.800 364.000,0.800 366.400 C 0.800 370.133,0.853 370.400,1.600 370.400 C 2.267 370.400,2.400 370.667,2.400 372.000 C 2.400 373.333,2.533 373.600,3.200 373.600 C 3.867 373.600,4.000 373.867,4.000 375.200 C 4.000 376.533,4.133 376.800,4.800 376.800 C 5.467 376.800,5.600 377.067,5.600 378.400 C 5.600 379.733,5.733 380.000,6.400 380.000 C 6.933 380.000,7.200 380.267,7.200 380.800 C 7.200 381.333,7.467 381.600,8.000 381.600 C 8.667 381.600,8.800 381.867,8.800 383.200 C 8.800 384.533,8.933 384.800,9.600 384.800 C 10.133 384.800,10.400 385.067,10.400 385.600 C 10.400 386.133,10.667 386.400,11.200 386.400 C 11.733 386.400,12.000 386.667,12.000 387.200 C 12.000 387.733,12.267 388.000,12.800 388.000 C 13.333 388.000,13.600 388.267,13.600 388.800 C 13.600 389.333,13.867 389.600,14.400 389.600 C 14.933 389.600,15.200 389.867,15.200 390.400 C 15.200 391.067,15.467 391.200,16.800 391.200 C 18.133 391.200,18.400 391.333,18.400 392.000 C 18.400 392.533,18.667 392.800,19.200 392.800 C 19.733 392.800,20.000 393.067,20.000 393.600 C 20.000 394.267,20.267 394.400,21.600 394.400 C 22.933 394.400,23.200 394.533,23.200 395.200 C 23.200 395.867,23.467 396.000,24.800 396.000 C 26.133 396.000,26.400 396.133,26.400 396.800 C 26.400 397.511,26.667 397.600,28.800 397.600 C 30.933 397.600,31.200 397.689,31.200 398.400 C 31.200 399.133,31.467 399.200,34.400 399.200 C 36.267 399.200,37.600 399.367,37.600 399.600 C 37.600 399.866,92.000 400.000,200.000 400.000 C 308.000 400.000,362.400 399.866,362.400 399.600 C 362.400 399.367,363.733 399.200,365.600 399.200 C 368.533 399.200,368.800 399.133,368.800 398.400 C 368.800 397.689,369.067 397.600,371.200 397.600 C 373.333 397.600,373.600 397.511,373.600 396.800 C 373.600 396.133,373.867 396.000,375.200 396.000 C 376.533 396.000,376.800 395.867,376.800 395.200 C 376.800 394.533,377.067 394.400,378.400 394.400 C 379.733 394.400,380.000 394.267,380.000 393.600 C 380.000 393.067,380.267 392.800,380.800 392.800 C 381.333 392.800,381.600 392.533,381.600 392.000 C 381.600 391.467,381.867 391.200,382.400 391.200 C 382.933 391.200,383.200 390.933,383.200 390.400 C 383.200 389.733,383.467 389.600,384.800 389.600 C 386.133 389.600,386.400 389.467,386.400 388.800 C 386.400 388.267,386.667 388.000,387.200 388.000 C 387.733 388.000,388.000 387.733,388.000 387.200 C 388.000 386.667,388.267 386.400,388.800 386.400 C 389.467 386.400,389.600 386.133,389.600 384.800 C 389.600 383.467,389.733 383.200,390.400 383.200 C 390.933 383.200,391.200 382.933,391.200 382.400 C 391.200 381.867,391.467 381.600,392.000 381.600 C 392.533 381.600,392.800 381.333,392.800 380.800 C 392.800 380.267,393.067 380.000,393.600 380.000 C 394.267 380.000,394.400 379.733,394.400 378.400 C 394.400 377.067,394.533 376.800,395.200 376.800 C 395.867 376.800,396.000 376.533,396.000 375.200 C 396.000 373.867,396.133 373.600,396.800 373.600 C 397.511 373.600,397.600 373.333,397.600 371.200 C 397.600 369.067,397.689 368.800,398.400 368.800 C 399.133 368.800,399.200 368.533,399.200 365.600 C 399.200 363.733,399.367 362.400,399.600 362.400 C 399.864 362.400,400.000 346.133,400.000 314.400 L 400.000 266.400 200.000 266.400 L 0.000 266.400 0.000 314.400 " stroke="none" fill="#0423cb" fill-rule="evenodd"></path><path id="path2" d="M36.447 0.655 C 35.969 1.195,35.991 1.260,36.614 1.139 C 37.010 1.063,37.409 0.775,37.500 0.500 C 37.730 -0.190,37.116 -0.100,36.447 0.655 M362.000 0.392 C 362.000 0.890,363.705 1.331,364.668 1.082 C 365.157 0.956,365.034 0.877,364.300 0.846 C 363.695 0.821,363.200 0.620,363.200 0.400 C 363.200 0.180,362.930 0.000,362.600 0.000 C 362.270 0.000,362.000 0.177,362.000 0.392 M373.200 3.133 C 373.200 4.117,373.495 4.352,374.423 4.110 C 375.610 3.799,375.428 2.400,374.200 2.400 C 373.497 2.400,373.200 2.618,373.200 3.133 M23.200 4.767 C 23.200 5.188,22.975 5.624,22.700 5.735 C 22.401 5.856,22.482 5.950,22.900 5.968 C 23.388 5.990,23.600 5.698,23.600 5.000 C 23.600 4.450,23.510 4.000,23.400 4.000 C 23.290 4.000,23.200 4.345,23.200 4.767 M376.454 4.900 C 376.410 5.803,376.562 5.992,377.300 5.954 C 377.938 5.921,378.003 5.855,377.525 5.729 C 377.153 5.631,376.773 5.157,376.679 4.675 C 376.539 3.955,376.499 3.994,376.454 4.900 M381.200 7.976 C 381.200 8.919,381.710 9.286,382.564 8.959 C 383.632 8.549,383.353 7.200,382.200 7.200 C 381.477 7.200,381.200 7.415,381.200 7.976 M390.927 17.800 C 390.982 18.343,391.328 18.621,392.004 18.666 C 392.839 18.720,392.858 18.700,392.125 18.541 C 391.643 18.436,391.158 18.047,391.048 17.675 C 390.902 17.189,390.869 17.224,390.927 17.800 M5.600 22.772 C 5.600 22.977,5.195 23.222,4.700 23.318 C 3.928 23.466,3.957 23.499,4.900 23.546 C 5.635 23.582,6.000 23.401,6.000 23.000 C 6.000 22.670,5.910 22.400,5.800 22.400 C 5.690 22.400,5.600 22.567,5.600 22.772 M395.707 26.167 C 395.798 26.914,397.600 27.453,397.600 26.733 C 397.600 26.550,397.255 26.400,396.833 26.400 C 396.412 26.400,395.965 26.175,395.840 25.900 C 395.716 25.625,395.656 25.745,395.707 26.167 M0.846 35.700 C 0.821 36.305,0.620 36.800,0.400 36.800 C 0.180 36.800,0.000 37.070,0.000 37.400 C 0.000 37.730,0.177 38.000,0.392 38.000 C 0.890 38.000,1.331 36.295,1.082 35.332 C 0.956 34.843,0.877 34.966,0.846 35.700 M398.846 37.276 C 398.800 38.347,399.415 39.118,399.915 38.618 C 400.059 38.474,399.978 38.231,399.735 38.078 C 399.492 37.925,399.203 37.440,399.093 37.000 C 398.937 36.375,398.883 36.436,398.846 37.276 M0.000 199.800 L 0.000 266.400 200.000 266.400 L 400.000 266.400 400.000 199.800 L 400.000 133.200 200.000 133.200 L 0.000 133.200 0.000 199.800 " stroke="none" fill="#14dcdc" fill-rule="evenodd"></path></g></svg>