<svg id="svg" version="1.1" xmlns="http://www.w3.org/2000/svg" xmlns:xlink="http://www.w3.org/1999/xlink" width="400" height="400" viewBox="0, 0, 400,400"><g id="svgg"><path id="path0" d="M32.800 0.400 C 32.800 0.620,33.340 0.800,34.000 0.800 C 34.660 0.800,35.200 0.620,35.200 0.400 C 35.200 0.180,34.660 0.000,34.000 0.000 C 33.340 0.000,32.800 0.180,32.800 0.400 M28.000 1.600 C 28.000 2.133,28.267 2.400,28.800 2.400 C 29.333 2.400,29.600 2.133,29.600 1.600 C 29.600 1.067,29.333 0.800,28.800 0.800 C 28.267 0.800,28.000 1.067,28.000 1.600 M18.400 6.400 C 18.400 6.933,18.667 7.200,19.200 7.200 C 19.733 7.200,20.000 6.933,20.000 6.400 C 20.000 5.867,19.733 5.600,19.200 5.600 C 18.667 5.600,18.400 5.867,18.400 6.400 M5.600 19.200 C 5.600 19.733,5.867 20.000,6.400 20.000 C 6.933 20.000,7.200 19.733,7.200 19.200 C 7.200 18.667,6.933 18.400,6.400 18.400 C 5.867 18.400,5.600 18.667,5.600 19.200 M394.400 22.400 C 394.400 22.933,394.667 23.200,395.200 23.200 C 395.733 23.200,396.000 22.933,396.000 22.400 C 396.000 21.867,395.733 21.600,395.200 21.600 C 394.667 21.600,394.400 21.867,394.400 22.400 M0.800 28.963 C 0.800 29.728,0.964 29.882,1.600 29.716 C 2.043 29.600,2.400 29.170,2.400 28.753 C 2.400 28.267,2.117 28.000,1.600 28.000 C 1.022 28.000,0.800 28.267,0.800 28.963 M91.400 55.651 C 90.937 56.126,85.017 61.778,75.607 70.729 C 63.604 82.147,61.819 83.839,59.600 85.898 C 56.245 89.012,48.229 96.914,47.657 97.671 C 47.127 98.373,48.118 99.418,58.790 109.422 C 60.655 111.170,62.828 113.230,63.621 114.000 C 64.413 114.770,68.630 118.820,72.992 123.000 C 77.354 127.180,81.935 131.590,83.171 132.800 C 84.408 134.010,86.945 136.433,88.810 138.184 C 90.674 139.935,95.772 144.795,100.139 148.984 C 109.721 158.176,109.729 158.184,118.220 166.200 C 124.567 172.191,129.710 177.091,134.594 181.800 C 135.735 182.900,139.692 186.680,143.387 190.200 C 147.083 193.720,150.712 197.182,151.453 197.893 C 153.463 199.822,153.255 200.363,148.919 204.499 C 144.911 208.322,136.876 216.040,133.615 219.200 C 131.728 221.029,119.155 232.973,117.195 234.800 C 115.076 236.774,101.742 249.507,96.226 254.823 C 89.768 261.047,84.899 265.585,82.518 267.600 C 81.103 268.797,77.517 272.216,62.378 286.800 C 61.121 288.010,58.948 290.065,57.547 291.366 C 56.146 292.668,53.158 295.524,50.906 297.714 L 46.813 301.695 47.571 302.759 C 48.160 303.587,57.857 313.036,63.826 318.600 C 66.487 321.081,83.483 337.242,87.036 340.670 C 87.760 341.368,89.161 342.685,90.150 343.596 L 91.947 345.253 93.074 344.538 C 93.693 344.145,95.910 342.188,98.000 340.190 C 100.090 338.191,103.218 335.216,104.952 333.578 C 106.685 331.940,108.766 329.970,109.576 329.200 C 111.446 327.423,126.590 312.920,129.625 310.000 C 130.883 308.790,133.150 306.630,134.663 305.200 C 145.189 295.254,151.199 289.553,152.795 288.000 C 153.813 287.010,158.326 282.690,162.823 278.400 C 167.320 274.110,173.880 267.792,177.400 264.360 C 183.829 258.092,190.536 251.625,195.000 247.390 C 199.362 243.252,199.195 243.253,203.335 247.310 C 204.509 248.460,208.493 252.280,212.191 255.800 C 215.888 259.320,220.822 264.092,223.156 266.404 C 225.490 268.715,230.802 273.845,234.960 277.804 C 239.118 281.762,243.550 285.990,244.809 287.200 C 248.387 290.640,259.946 301.597,262.549 304.017 C 263.840 305.217,265.924 307.190,267.179 308.400 C 276.428 317.316,292.540 332.685,296.000 335.893 C 297.210 337.015,299.910 339.566,302.000 341.562 C 304.090 343.559,305.993 345.194,306.228 345.196 C 306.683 345.200,306.972 344.935,318.645 333.800 C 322.796 329.840,327.522 325.340,329.148 323.800 C 333.111 320.046,333.858 319.332,342.560 311.006 C 346.695 307.050,350.418 303.336,350.833 302.754 L 351.587 301.695 347.293 297.512 C 344.932 295.211,341.941 292.354,340.647 291.164 C 339.353 289.974,337.279 288.010,336.038 286.800 C 328.046 279.005,316.320 267.850,314.800 266.596 C 312.841 264.979,305.030 257.583,290.789 243.858 C 288.473 241.626,283.528 236.920,279.800 233.400 C 272.710 226.707,266.785 221.057,262.600 217.000 C 261.238 215.680,256.856 211.471,252.862 207.647 C 248.868 203.822,245.600 200.381,245.600 200.000 C 245.600 199.619,248.795 196.243,252.700 192.499 C 256.605 188.755,261.150 184.393,262.800 182.805 C 264.450 181.216,268.495 177.371,271.790 174.259 C 275.084 171.146,278.346 168.060,279.037 167.400 C 285.894 160.856,295.235 151.924,296.396 150.800 C 300.446 146.882,307.706 139.936,313.603 134.337 C 317.231 130.892,321.755 126.572,323.656 124.737 C 327.505 121.021,340.136 108.947,345.977 103.400 C 348.062 101.420,350.102 99.473,350.511 99.073 C 351.129 98.468,351.168 98.234,350.745 97.673 C 350.165 96.906,342.105 88.964,338.800 85.903 C 337.590 84.782,334.619 81.961,332.197 79.633 C 329.776 77.305,324.826 72.578,321.197 69.129 C 317.569 65.680,312.807 61.135,310.616 59.029 C 308.425 56.923,306.512 55.200,306.366 55.200 C 306.030 55.200,302.582 58.290,297.206 63.407 C 294.900 65.603,291.026 69.290,288.598 71.600 C 286.170 73.910,280.517 79.310,276.035 83.600 C 265.070 94.097,265.805 93.397,261.988 96.979 C 256.988 101.671,237.543 120.259,230.832 126.763 C 229.605 127.952,226.620 130.737,224.200 132.951 C 219.761 137.012,216.078 140.501,207.621 148.655 C 201.562 154.495,199.489 156.400,199.190 156.400 C 198.922 156.400,197.754 155.310,187.025 145.057 C 183.079 141.286,179.567 137.930,179.220 137.600 C 178.873 137.270,176.236 134.808,173.360 132.128 C 170.483 129.449,167.138 126.299,165.926 125.128 C 162.791 122.101,148.004 107.918,147.233 107.200 C 145.028 105.146,132.696 93.457,130.984 91.800 C 128.124 89.029,113.550 75.087,108.197 70.000 C 105.767 67.690,101.606 63.724,98.952 61.187 C 94.802 57.221,92.352 55.143,91.914 55.220 C 91.851 55.231,91.620 55.425,91.400 55.651 " stroke="none" fill="#040404" fill-rule="evenodd"></path><path id="path1" d="M37.398 0.608 C 36.965 1.270,34.916 1.414,32.100 0.979 C 30.464 0.726,30.400 0.756,30.400 1.769 L 30.400 2.822 27.778 2.554 C 25.322 2.302,25.141 2.339,24.931 3.142 C 24.808 3.614,24.458 4.000,24.153 4.000 C 23.827 4.000,23.600 4.418,23.600 5.018 C 23.600 5.965,23.502 6.018,22.200 5.774 C 20.981 5.545,20.800 5.614,20.800 6.307 C 20.800 7.597,19.761 8.221,18.625 7.613 C 17.587 7.058,16.800 7.321,16.800 8.224 C 16.800 8.541,16.440 8.800,16.000 8.800 C 15.467 8.800,15.200 9.067,15.200 9.600 C 15.200 10.133,14.933 10.400,14.400 10.400 C 13.867 10.400,13.600 10.667,13.600 11.200 C 13.600 11.733,13.333 12.000,12.800 12.000 C 12.267 12.000,12.000 12.267,12.000 12.800 C 12.000 13.333,11.733 13.600,11.200 13.600 C 10.667 13.600,10.400 13.867,10.400 14.400 C 10.400 14.933,10.133 15.200,9.600 15.200 C 9.067 15.200,8.800 15.467,8.800 16.000 C 8.800 16.440,8.541 16.800,8.224 16.800 C 7.321 16.800,7.058 17.587,7.613 18.625 C 8.221 19.761,7.597 20.800,6.307 20.800 C 5.614 20.800,5.545 20.981,5.774 22.200 C 6.018 23.502,5.965 23.600,5.018 23.600 C 4.418 23.600,4.000 23.827,4.000 24.153 C 4.000 24.458,3.640 24.801,3.200 24.916 C 2.319 25.146,2.065 27.426,2.772 28.748 C 3.230 29.603,2.859 30.257,1.800 30.463 C 1.072 30.604,1.000 30.936,1.000 34.174 C 1.000 36.662,0.850 37.780,0.500 37.898 C 0.104 38.032,0.000 47.936,0.000 85.633 L 0.000 133.200 40.351 133.200 C 86.336 133.200,83.230 133.457,79.549 129.958 C 78.367 128.835,73.890 124.550,69.600 120.435 C 65.310 116.321,60.270 111.536,58.400 109.802 C 56.530 108.067,53.046 104.732,50.657 102.390 L 46.315 98.132 51.412 93.166 C 54.215 90.435,57.358 87.390,58.396 86.400 C 59.435 85.410,61.975 82.971,64.042 80.980 C 66.109 78.989,69.330 75.940,71.200 74.204 C 73.070 72.469,78.020 67.775,82.200 63.772 C 86.380 59.770,90.356 56.032,91.036 55.466 L 92.272 54.437 94.884 56.755 C 98.031 59.548,103.906 65.102,114.397 75.200 C 122.007 82.525,132.426 92.479,135.589 95.446 C 138.988 98.634,144.357 103.753,149.595 108.800 C 170.429 128.875,174.565 132.653,176.025 132.945 C 178.491 133.438,221.699 133.192,223.081 132.677 C 223.786 132.415,225.946 130.691,227.881 128.848 C 233.841 123.170,245.588 111.928,248.203 109.400 C 253.776 104.012,257.991 99.991,261.400 96.807 C 265.773 92.723,278.811 80.279,288.244 71.187 C 291.875 67.687,300.767 59.335,304.584 55.840 C 306.548 54.041,305.404 53.326,314.466 62.022 C 318.720 66.105,323.820 70.958,325.800 72.807 C 329.176 75.960,333.174 79.774,338.999 85.400 C 340.366 86.720,343.535 89.771,346.042 92.180 C 352.381 98.272,352.191 97.986,350.837 99.426 C 349.924 100.397,340.360 109.514,336.388 113.200 C 335.796 113.750,331.821 117.550,327.555 121.645 C 323.290 125.739,319.102 129.742,318.248 130.541 C 315.234 133.360,312.784 133.200,358.849 133.200 L 400.000 133.200 400.000 86.043 C 400.000 46.057,399.915 38.853,399.442 38.671 C 398.993 38.499,398.926 37.623,399.100 34.206 C 399.308 30.140,399.281 29.946,398.481 29.737 C 397.895 29.584,397.608 29.141,397.522 28.259 C 397.430 27.311,397.202 26.998,396.600 26.991 C 395.927 26.983,395.818 26.751,395.914 25.521 C 396.011 24.262,395.900 24.041,395.114 23.930 C 394.292 23.813,394.210 23.609,394.297 21.900 C 394.382 20.237,394.295 20.000,393.597 20.000 C 393.159 20.000,392.800 19.743,392.800 19.428 C 392.800 19.113,392.395 18.798,391.900 18.728 C 391.104 18.615,391.015 18.404,391.127 16.900 C 391.239 15.407,391.153 15.200,390.427 15.200 C 389.867 15.200,389.600 14.942,389.600 14.400 C 389.600 13.867,389.333 13.600,388.800 13.600 C 388.267 13.600,388.000 13.333,388.000 12.800 C 388.000 12.267,387.733 12.000,387.200 12.000 C 386.667 12.000,386.400 11.733,386.400 11.200 C 386.400 10.667,386.133 10.400,385.600 10.400 C 385.056 10.400,384.800 10.133,384.800 9.566 C 384.800 8.830,384.600 8.747,383.100 8.866 C 381.593 8.985,381.385 8.898,381.272 8.100 C 381.202 7.605,380.887 7.200,380.572 7.200 C 380.256 7.200,380.000 6.821,380.000 6.355 C 380.000 5.579,379.851 5.532,378.200 5.779 C 376.453 6.041,376.400 6.018,376.400 4.994 C 376.400 4.018,376.287 3.949,374.900 4.069 C 373.602 4.182,373.383 4.079,373.272 3.300 C 373.168 2.566,372.891 2.400,371.772 2.400 C 370.635 2.400,370.400 2.253,370.400 1.540 C 370.400 0.702,370.299 0.686,366.617 0.928 C 363.577 1.128,362.718 1.061,362.245 0.588 C 361.335 -0.322,37.994 -0.302,37.398 0.608 " stroke="none" fill="#fbf3fb" fill-rule="evenodd"></path><path id="path2" d="M35.200 0.372 C 35.200 0.577,34.795 0.830,34.300 0.934 C 33.802 1.039,34.012 1.096,34.769 1.062 C 36.099 1.002,37.103 -0.000,35.833 -0.000 C 35.485 -0.000,35.200 0.167,35.200 0.372 M363.200 0.400 C 363.200 0.620,363.740 0.800,364.400 0.800 C 365.060 0.800,365.600 0.620,365.600 0.400 C 365.600 0.180,365.060 0.000,364.400 0.000 C 363.740 0.000,363.200 0.180,363.200 0.400 M29.600 1.571 C 29.600 1.995,29.285 2.424,28.900 2.524 C 28.373 2.662,28.423 2.719,29.100 2.754 C 29.806 2.790,30.000 2.584,30.000 1.800 C 30.000 1.250,29.910 0.800,29.800 0.800 C 29.690 0.800,29.600 1.147,29.600 1.571 M21.867 4.267 C 21.316 4.817,21.629 5.600,22.400 5.600 C 22.933 5.600,23.200 5.333,23.200 4.800 C 23.200 4.029,22.417 3.716,21.867 4.267 M376.800 4.771 C 376.800 5.343,377.057 5.600,377.629 5.600 C 378.654 5.600,378.538 4.276,377.495 4.075 C 377.015 3.983,376.800 4.198,376.800 4.771 M20.000 6.371 C 20.000 6.795,19.685 7.224,19.300 7.324 C 18.773 7.462,18.823 7.519,19.500 7.554 C 20.206 7.590,20.400 7.384,20.400 6.600 C 20.400 6.050,20.310 5.600,20.200 5.600 C 20.090 5.600,20.000 5.947,20.000 6.371 M391.302 17.496 C 391.334 17.913,391.687 18.266,392.104 18.298 C 392.602 18.335,392.807 18.131,392.720 17.682 C 392.535 16.718,391.231 16.547,391.302 17.496 M7.200 19.372 C 7.200 19.687,6.795 20.022,6.300 20.118 C 5.528 20.266,5.557 20.299,6.500 20.346 C 7.351 20.388,7.600 20.219,7.600 19.600 C 7.600 19.160,7.510 18.800,7.400 18.800 C 7.290 18.800,7.200 19.057,7.200 19.372 M4.267 21.867 C 3.716 22.417,4.029 23.200,4.800 23.200 C 5.333 23.200,5.600 22.933,5.600 22.400 C 5.600 21.629,4.817 21.316,4.267 21.867 M394.046 22.700 C 394.008 23.438,394.197 23.590,395.100 23.546 C 396.006 23.501,396.045 23.461,395.325 23.321 C 394.843 23.227,394.369 22.847,394.271 22.475 C 394.145 21.997,394.079 22.062,394.046 22.700 M396.000 25.571 C 396.000 26.143,396.257 26.400,396.829 26.400 C 397.854 26.400,397.738 25.076,396.695 24.875 C 396.215 24.783,396.000 24.998,396.000 25.571 M2.446 28.853 C 2.421 29.213,1.995 29.637,1.500 29.796 C 0.695 30.054,0.678 30.105,1.342 30.280 C 2.293 30.530,2.929 29.895,2.684 28.942 C 2.534 28.358,2.483 28.339,2.446 28.853 M0.000 35.600 C 0.000 36.260,0.180 36.800,0.400 36.800 C 0.620 36.800,0.800 36.260,0.800 35.600 C 0.800 34.940,0.620 34.400,0.400 34.400 C 0.180 34.400,0.000 34.940,0.000 35.600 M399.200 37.000 C 399.200 37.550,399.380 38.000,399.600 38.000 C 399.820 38.000,400.000 37.550,400.000 37.000 C 400.000 36.450,399.820 36.000,399.600 36.000 C 399.380 36.000,399.200 36.450,399.200 37.000 M90.181 56.497 C 88.687 58.102,88.677 58.129,89.994 56.997 C 90.760 56.339,91.502 55.646,91.643 55.458 C 91.784 55.270,92.417 55.426,93.050 55.805 L 94.200 56.495 93.200 55.656 C 91.898 54.565,92.011 54.533,90.181 56.497 M303.896 56.900 C 302.719 58.055,302.485 58.360,303.378 57.578 C 306.329 54.991,306.309 55.000,307.308 55.845 L 308.200 56.600 307.438 55.700 C 306.406 54.481,306.339 54.504,303.896 56.900 M96.444 58.824 C 99.774 62.053,111.785 73.405,115.000 76.362 C 117.025 78.224,116.859 78.013,114.400 75.597 C 112.530 73.760,109.290 70.633,107.200 68.647 C 105.110 66.661,101.600 63.305,99.400 61.189 C 97.200 59.073,95.130 57.186,94.800 56.995 C 94.470 56.804,95.210 57.627,96.444 58.824 M299.778 60.500 C 299.108 61.215,295.960 64.254,292.780 67.254 C 285.833 73.809,278.372 81.089,281.775 77.993 C 283.109 76.780,286.180 73.897,288.600 71.588 C 291.020 69.278,294.719 65.771,296.819 63.794 C 300.204 60.610,301.523 59.200,301.121 59.200 C 301.051 59.200,300.447 59.785,299.778 60.500 M316.600 64.800 C 317.906 66.120,319.065 67.200,319.175 67.200 C 319.285 67.200,318.306 66.120,317.000 64.800 C 315.694 63.480,314.535 62.400,314.425 62.400 C 314.315 62.400,315.294 63.480,316.600 64.800 M79.787 66.500 L 77.400 69.000 79.900 66.613 C 81.275 65.299,82.400 64.174,82.400 64.113 C 82.400 63.817,82.005 64.178,79.787 66.500 M319.600 67.343 C 319.600 67.603,320.533 68.556,324.913 72.768 C 326.611 74.400,328.000 75.651,328.000 75.548 C 328.000 75.445,326.110 73.506,323.800 71.238 C 321.490 68.970,319.600 67.217,319.600 67.343 M75.600 70.255 C 74.830 71.047,71.484 74.328,68.163 77.547 C 64.843 80.766,63.673 81.959,65.563 80.198 C 75.531 70.910,77.704 68.770,77.124 68.808 C 77.056 68.813,76.370 69.464,75.600 70.255 M332.200 79.600 C 334.392 81.800,336.275 83.600,336.385 83.600 C 336.495 83.600,334.792 81.800,332.600 79.600 C 330.408 77.400,328.525 75.600,328.415 75.600 C 328.305 75.600,330.008 77.400,332.200 79.600 M337.031 84.016 C 337.432 84.685,341.600 88.622,341.600 88.332 C 341.600 88.234,340.489 87.085,339.131 85.777 C 337.773 84.470,336.828 83.677,337.031 84.016 M58.670 86.462 L 56.600 88.525 58.800 86.590 C 60.010 85.525,61.075 84.597,61.167 84.527 C 61.258 84.457,61.200 84.400,61.037 84.400 C 60.874 84.400,59.809 85.328,58.670 86.462 M126.400 87.400 C 127.817 88.830,129.067 90.000,129.177 90.000 C 129.287 90.000,128.217 88.830,126.800 87.400 C 125.383 85.970,124.133 84.800,124.023 84.800 C 123.913 84.800,124.983 85.970,126.400 87.400 M269.944 89.007 C 268.483 90.433,267.408 91.600,267.555 91.600 C 267.703 91.600,268.983 90.430,270.400 89.000 C 271.817 87.570,272.892 86.403,272.788 86.407 C 272.685 86.411,271.405 87.581,269.944 89.007 M131.200 92.061 C 132.190 93.045,133.075 93.794,133.167 93.725 C 133.406 93.545,131.148 91.262,130.200 90.725 C 129.760 90.475,130.210 91.076,131.200 92.061 M262.866 95.872 C 260.318 98.424,260.023 98.787,262.000 96.937 C 263.650 95.393,265.521 93.650,266.158 93.065 C 266.796 92.479,267.185 92.000,267.024 92.000 C 266.863 92.000,264.992 93.742,262.866 95.872 M133.600 94.097 C 133.600 94.201,136.435 96.962,139.900 100.234 C 143.365 103.505,145.840 105.761,145.400 105.245 C 144.334 103.998,133.600 93.856,133.600 94.097 M47.627 97.162 C 46.597 98.609,46.599 98.674,47.700 99.208 C 48.543 99.617,48.553 99.606,47.856 99.046 C 47.134 98.465,47.138 98.411,47.983 97.224 C 48.462 96.551,48.764 96.000,48.654 96.000 C 48.544 96.000,48.082 96.523,47.627 97.162 M350.452 97.273 C 351.073 98.145,351.206 98.598,350.875 98.708 C 350.609 98.797,350.186 99.259,349.936 99.735 C 349.559 100.453,349.668 100.416,350.580 99.516 L 351.677 98.432 350.811 97.216 C 350.335 96.547,349.856 96.000,349.746 96.000 C 349.636 96.000,349.954 96.573,350.452 97.273 M254.069 104.048 C 251.576 106.481,249.596 108.525,249.669 108.591 C 249.741 108.657,251.870 106.665,254.400 104.163 C 256.930 101.661,258.910 99.616,258.800 99.620 C 258.690 99.623,256.561 101.616,254.069 104.048 M52.610 103.823 C 58.914 110.069,64.562 115.421,64.194 114.800 C 63.864 114.243,62.093 112.536,52.600 103.625 L 49.000 100.246 52.610 103.823 M342.800 106.469 L 336.600 112.504 342.200 107.298 C 347.546 102.328,349.517 100.380,349.162 100.417 C 349.073 100.427,346.210 103.150,342.800 106.469 M146.800 106.873 C 150.697 110.409,151.380 110.952,149.800 109.255 C 148.920 108.310,147.840 107.347,147.400 107.114 C 146.960 106.882,146.690 106.773,146.800 106.873 M247.200 110.600 C 246.228 111.590,245.523 112.400,245.633 112.400 C 245.743 112.400,246.628 111.590,247.600 110.600 C 248.572 109.610,249.277 108.800,249.167 108.800 C 249.057 108.800,248.172 109.610,247.200 110.600 M334.400 114.339 C 333.410 115.324,332.960 115.925,333.400 115.675 C 334.348 115.138,336.606 112.855,336.367 112.675 C 336.275 112.606,335.390 113.355,334.400 114.339 M67.000 117.600 C 68.306 118.920,69.465 120.000,69.575 120.000 C 69.685 120.000,68.706 118.920,67.400 117.600 C 66.094 116.280,64.935 115.200,64.825 115.200 C 64.715 115.200,65.694 116.280,67.000 117.600 M329.588 119.100 L 327.000 121.800 329.700 119.212 C 331.185 117.788,332.400 116.573,332.400 116.512 C 332.400 116.217,331.993 116.592,329.588 119.100 M161.400 120.800 C 162.706 122.120,163.865 123.200,163.975 123.200 C 164.085 123.200,163.106 122.120,161.800 120.800 C 160.494 119.480,159.335 118.400,159.225 118.400 C 159.115 118.400,160.094 119.480,161.400 120.800 M235.791 121.700 L 232.600 125.000 235.900 121.809 C 238.965 118.846,239.382 118.400,239.091 118.400 C 239.030 118.400,237.545 119.885,235.791 121.700 M166.276 125.500 C 170.170 129.130,178.646 137.053,179.220 137.600 C 179.567 137.930,183.079 141.286,187.025 145.057 C 197.754 155.310,198.922 156.400,199.190 156.400 C 199.496 156.400,201.065 154.943,210.600 145.802 C 222.177 134.705,224.343 132.574,222.600 134.001 C 221.720 134.722,217.881 138.301,214.068 141.955 C 198.253 157.117,199.618 155.981,198.300 155.070 C 197.365 154.423,196.017 153.155,184.135 141.753 C 180.211 137.987,176.010 134.048,174.800 132.999 C 173.590 131.950,170.948 129.497,168.928 127.546 C 166.908 125.596,165.123 124.000,164.961 124.000 C 164.799 124.000,165.391 124.675,166.276 125.500 M228.200 128.894 C 225.248 131.892,224.983 132.229,227.189 130.178 C 231.706 125.979,232.905 124.721,232.300 124.816 C 232.245 124.824,230.400 126.660,228.200 128.894 M79.000 129.145 C 79.880 130.090,80.960 131.053,81.400 131.286 C 81.840 131.518,82.110 131.627,82.000 131.527 C 78.103 127.991,77.420 127.448,79.000 129.145 M318.800 129.400 C 317.828 130.390,317.123 131.200,317.233 131.200 C 317.343 131.200,318.228 130.390,319.200 129.400 C 320.172 128.410,320.877 127.600,320.767 127.600 C 320.657 127.600,319.772 128.410,318.800 129.400 M314.585 133.473 C 313.493 134.504,311.160 136.698,309.400 138.351 C 307.640 140.003,303.668 143.795,300.573 146.777 C 295.994 151.189,287.622 159.207,279.037 167.400 C 278.346 168.060,275.084 171.146,271.790 174.259 C 268.495 177.371,264.450 181.216,262.800 182.805 C 261.150 184.393,256.605 188.755,252.700 192.499 C 248.795 196.243,245.600 199.619,245.600 200.000 C 245.600 200.381,248.868 203.822,252.862 207.647 C 256.856 211.471,261.238 215.680,262.600 217.000 C 266.785 221.057,272.710 226.707,279.800 233.400 C 283.528 236.920,288.473 241.626,290.789 243.858 C 305.030 257.583,312.841 264.979,314.800 266.596 C 316.320 267.850,328.046 279.005,336.038 286.800 C 337.279 288.010,339.353 289.974,340.647 291.164 C 341.941 292.354,344.932 295.211,347.293 297.512 L 351.587 301.695 350.833 302.754 C 350.418 303.336,346.695 307.050,342.560 311.006 C 333.858 319.332,333.111 320.046,329.148 323.800 C 327.522 325.340,322.796 329.840,318.645 333.800 C 306.972 344.935,306.683 345.200,306.228 345.196 C 305.993 345.194,304.090 343.559,302.000 341.562 C 299.910 339.566,297.210 337.015,296.000 335.893 C 292.540 332.685,276.428 317.316,267.179 308.400 C 265.924 307.190,263.840 305.217,262.549 304.017 C 259.946 301.597,248.387 290.640,244.809 287.200 C 243.550 285.990,239.118 281.762,234.960 277.804 C 230.802 273.845,225.490 268.715,223.156 266.404 C 220.822 264.092,215.888 259.320,212.191 255.800 C 208.493 252.280,204.509 248.460,203.335 247.310 C 199.195 243.253,199.362 243.252,195.000 247.390 C 190.536 251.625,183.829 258.092,177.400 264.360 C 173.880 267.792,167.320 274.110,162.823 278.400 C 158.326 282.690,153.813 287.010,152.795 288.000 C 151.199 289.553,145.189 295.254,134.663 305.200 C 133.150 306.630,130.883 308.790,129.625 310.000 C 126.590 312.920,111.446 327.423,109.576 329.200 C 108.766 329.970,106.685 331.940,104.952 333.578 C 103.218 335.216,100.090 338.191,98.000 340.190 C 95.910 342.188,93.693 344.145,93.074 344.538 L 91.947 345.253 90.150 343.596 C 89.161 342.685,87.760 341.368,87.036 340.670 C 83.483 337.242,66.487 321.081,63.826 318.600 C 57.857 313.036,48.160 303.587,47.571 302.759 L 46.813 301.695 50.906 297.714 C 53.158 295.524,56.146 292.668,57.547 291.366 C 58.948 290.065,61.121 288.010,62.378 286.800 C 77.517 272.216,81.103 268.797,82.518 267.600 C 84.899 265.585,89.768 261.047,96.226 254.823 C 101.742 249.507,115.076 236.774,117.195 234.800 C 119.155 232.973,131.728 221.029,133.615 219.200 C 136.876 216.040,144.911 208.322,148.919 204.499 C 153.255 200.363,153.463 199.822,151.453 197.893 C 150.712 197.182,147.083 193.720,143.387 190.200 C 139.692 186.680,135.735 182.900,134.594 181.800 C 129.710 177.091,124.567 172.191,118.220 166.200 C 109.729 158.184,109.721 158.176,100.139 148.984 C 95.772 144.795,90.674 139.935,88.810 138.184 C 86.945 136.433,84.740 134.325,83.910 133.500 C 83.079 132.675,82.265 132.002,82.100 132.005 C 81.750 132.011,86.639 136.800,96.183 145.802 C 99.914 149.321,104.843 154.000,107.137 156.200 C 120.404 168.926,122.780 171.193,129.780 177.800 C 133.508 181.320,137.378 184.985,138.380 185.943 C 139.381 186.902,142.855 190.228,146.100 193.333 C 153.602 200.512,153.602 199.489,146.100 206.665 C 142.855 209.769,139.296 213.184,138.191 214.254 C 137.086 215.325,133.218 218.990,129.594 222.400 C 123.878 227.779,117.397 233.960,112.397 238.800 C 111.602 239.570,107.738 243.260,103.811 247.000 C 99.884 250.740,95.837 254.610,94.817 255.600 C 89.971 260.303,84.341 265.346,83.377 265.846 C 82.487 266.308,75.453 266.400,41.154 266.400 L 0.000 266.400 0.000 314.400 C 0.000 346.133,0.136 362.400,0.400 362.400 C 0.640 362.400,0.800 364.000,0.800 366.400 C 0.800 370.133,0.853 370.400,1.600 370.400 C 2.267 370.400,2.400 370.667,2.400 372.000 C 2.400 373.333,2.533 373.600,3.200 373.600 C 3.867 373.600,4.000 373.867,4.000 375.200 C 4.000 376.533,4.133 376.800,4.800 376.800 C 5.467 376.800,5.600 377.067,5.600 378.400 C 5.600 379.733,5.733 380.000,6.400 380.000 C 6.933 380.000,7.200 380.267,7.200 380.800 C 7.200 381.333,7.467 381.600,8.000 381.600 C 8.667 381.600,8.800 381.867,8.800 383.200 C 8.800 384.533,8.933 384.800,9.600 384.800 C 10.133 384.800,10.400 385.067,10.400 385.600 C 10.400 386.133,10.667 386.400,11.200 386.400 C 11.733 386.400,12.000 386.667,12.000 387.200 C 12.000 387.733,12.267 388.000,12.800 388.000 C 13.333 388.000,13.600 388.267,13.600 388.800 C 13.600 389.333,13.867 389.600,14.400 389.600 C 14.933 389.600,15.200 389.867,15.200 390.400 C 15.200 391.067,15.467 391.200,16.800 391.200 C 18.133 391.200,18.400 391.333,18.400 392.000 C 18.400 392.533,18.667 392.800,19.200 392.800 C 19.733 392.800,20.000 393.067,20.000 393.600 C 20.000 394.267,20.267 394.400,21.600 394.400 C 22.933 394.400,23.200 394.533,23.200 395.200 C 23.200 395.867,23.467 396.000,24.800 396.000 C 26.133 396.000,26.400 396.133,26.400 396.800 C 26.400 397.511,26.667 397.600,28.800 397.600 C 30.933 397.600,31.200 397.689,31.200 398.400 C 31.200 399.133,31.467 399.200,34.400 399.200 C 36.267 399.200,37.600 399.367,37.600 399.600 C 37.600 399.866,92.000 400.000,200.000 400.000 C 308.000 400.000,362.400 399.866,362.400 399.600 C 362.400 399.367,363.733 399.200,365.600 399.200 C 368.533 399.200,368.800 399.133,368.800 398.400 C 368.800 397.689,369.067 397.600,371.200 397.600 C 373.333 397.600,373.600 397.511,373.600 396.800 C 373.600 396.133,373.867 396.000,375.200 396.000 C 376.533 396.000,376.800 395.867,376.800 395.200 C 376.800 394.533,377.067 394.400,378.400 394.400 C 379.733 394.400,380.000 394.267,380.000 393.600 C 380.000 393.067,380.267 392.800,380.800 392.800 C 381.333 392.800,381.600 392.533,381.600 392.000 C 381.600 391.467,381.867 391.200,382.400 391.200 C 382.933 391.200,383.200 390.933,383.200 390.400 C 383.200 389.733,383.467 389.600,384.800 389.600 C 386.133 389.600,386.400 389.467,386.400 388.800 C 386.400 388.267,386.667 388.000,387.200 388.000 C 387.733 388.000,388.000 387.733,388.000 387.200 C 388.000 386.667,388.267 386.400,388.800 386.400 C 389.467 386.400,389.600 386.133,389.600 384.800 C 389.600 383.467,389.733 383.200,390.400 383.200 C 390.933 383.200,391.200 382.933,391.200 382.400 C 391.200 381.867,391.467 381.600,392.000 381.600 C 392.533 381.600,392.800 381.333,392.800 380.800 C 392.800 380.267,393.067 380.000,393.600 380.000 C 394.267 380.000,394.400 379.733,394.400 378.400 C 394.400 377.067,394.533 376.800,395.200 376.800 C 395.867 376.800,396.000 376.533,396.000 375.200 C 396.000 373.867,396.133 373.600,396.800 373.600 C 397.511 373.600,397.600 373.333,397.600 371.200 C 397.600 369.067,397.689 368.800,398.400 368.800 C 399.147 368.800,399.200 368.533,399.200 364.800 C 399.200 362.400,399.360 360.800,399.600 360.800 C 399.864 360.800,400.000 344.800,400.000 313.600 L 400.000 266.400 357.995 266.400 C 325.134 266.400,315.794 266.291,315.095 265.900 C 313.887 265.225,303.788 255.847,290.647 243.200 C 277.184 230.242,273.971 227.170,267.007 220.600 C 260.568 214.525,255.299 209.490,249.151 203.536 C 245.145 199.656,244.527 200.882,256.068 189.800 C 258.359 187.600,263.284 182.920,267.013 179.400 C 270.742 175.880,275.855 171.020,278.375 168.600 C 280.895 166.180,283.613 163.570,284.415 162.800 C 291.472 156.025,295.134 152.541,300.810 147.206 C 308.791 139.705,317.079 131.610,316.785 131.604 C 316.667 131.602,315.677 132.443,314.585 133.473 M202.883 247.483 C 205.983 250.365,207.581 251.897,217.055 261.063 C 219.065 263.009,220.803 265.005,220.917 265.500 L 221.125 266.400 199.200 266.400 L 177.275 266.400 177.488 265.500 C 177.605 265.005,179.073 263.275,180.750 261.656 C 182.428 260.036,185.690 256.878,188.000 254.636 C 194.519 248.311,198.799 244.400,199.200 244.400 C 199.401 244.400,201.059 245.788,202.883 247.483 " stroke="none" fill="#0423cb" fill-rule="evenodd"></path><path id="path3" d="M36.244 0.629 C 36.076 1.068,36.204 1.219,36.668 1.129 C 37.034 1.058,37.409 0.775,37.500 0.500 C 37.745 -0.235,36.528 -0.110,36.244 0.629 M362.000 0.392 C 362.000 0.890,363.705 1.331,364.668 1.082 C 365.157 0.956,365.034 0.877,364.300 0.846 C 363.695 0.821,363.200 0.620,363.200 0.400 C 363.200 0.180,362.930 0.000,362.600 0.000 C 362.270 0.000,362.000 0.177,362.000 0.392 M373.200 3.133 C 373.200 4.117,373.495 4.352,374.423 4.110 C 375.610 3.799,375.428 2.400,374.200 2.400 C 373.497 2.400,373.200 2.618,373.200 3.133 M23.200 4.767 C 23.200 5.188,22.975 5.624,22.700 5.735 C 22.401 5.856,22.482 5.950,22.900 5.968 C 23.388 5.990,23.600 5.698,23.600 5.000 C 23.600 4.450,23.510 4.000,23.400 4.000 C 23.290 4.000,23.200 4.345,23.200 4.767 M376.454 4.900 C 376.410 5.803,376.562 5.992,377.300 5.954 C 377.938 5.921,378.003 5.855,377.525 5.729 C 377.153 5.631,376.773 5.157,376.679 4.675 C 376.539 3.955,376.499 3.994,376.454 4.900 M381.200 7.976 C 381.200 8.919,381.710 9.286,382.564 8.959 C 383.632 8.549,383.353 7.200,382.200 7.200 C 381.477 7.200,381.200 7.415,381.200 7.976 M390.800 17.794 C 390.800 18.444,391.683 18.982,392.350 18.738 C 392.557 18.662,392.293 18.277,391.763 17.881 C 390.923 17.254,390.800 17.243,390.800 17.794 M5.600 22.772 C 5.600 22.977,5.195 23.222,4.700 23.318 C 3.928 23.466,3.957 23.499,4.900 23.546 C 5.635 23.582,6.000 23.401,6.000 23.000 C 6.000 22.670,5.910 22.400,5.800 22.400 C 5.690 22.400,5.600 22.567,5.600 22.772 M395.707 26.167 C 395.798 26.914,397.600 27.453,397.600 26.733 C 397.600 26.550,397.255 26.400,396.833 26.400 C 396.412 26.400,395.965 26.175,395.840 25.900 C 395.716 25.625,395.656 25.745,395.707 26.167 M0.846 35.700 C 0.821 36.305,0.620 36.800,0.400 36.800 C 0.180 36.800,0.000 37.070,0.000 37.400 C 0.000 37.730,0.177 38.000,0.392 38.000 C 0.890 38.000,1.331 36.295,1.082 35.332 C 0.956 34.843,0.877 34.966,0.846 35.700 M398.846 37.276 C 398.800 38.347,399.415 39.118,399.915 38.618 C 400.059 38.474,399.978 38.231,399.735 38.078 C 399.492 37.925,399.203 37.440,399.093 37.000 C 398.937 36.375,398.883 36.436,398.846 37.276 M305.549 55.100 C 305.048 55.739,305.063 55.751,305.721 55.233 C 306.374 54.721,306.678 54.892,308.921 57.033 L 311.400 59.400 309.013 56.900 C 306.366 54.129,306.327 54.109,305.549 55.100 M87.787 58.500 L 85.400 61.000 87.900 58.613 C 89.275 57.299,90.400 56.174,90.400 56.113 C 90.400 55.817,90.005 56.178,87.787 58.500 M101.200 63.000 C 102.617 64.430,103.867 65.600,103.977 65.600 C 104.087 65.600,103.017 64.430,101.600 63.000 C 100.183 61.570,98.933 60.400,98.823 60.400 C 98.713 60.400,99.783 61.570,101.200 63.000 M295.188 64.700 L 292.600 67.400 295.300 64.812 C 297.808 62.407,298.183 62.000,297.888 62.000 C 297.827 62.000,296.612 63.215,295.188 64.700 M108.400 69.800 C 109.817 71.230,111.067 72.400,111.177 72.400 C 111.287 72.400,110.217 71.230,108.800 69.800 C 107.383 68.370,106.133 67.200,106.023 67.200 C 105.913 67.200,106.983 68.370,108.400 69.800 M287.988 71.500 L 285.400 74.200 288.100 71.612 C 290.608 69.207,290.983 68.800,290.688 68.800 C 290.627 68.800,289.412 70.015,287.988 71.500 M325.400 72.800 C 326.928 74.340,328.269 75.600,328.379 75.600 C 328.489 75.600,327.328 74.340,325.800 72.800 C 324.272 71.260,322.931 70.000,322.821 70.000 C 322.711 70.000,323.872 71.260,325.400 72.800 M71.188 74.300 L 68.600 77.000 71.300 74.412 C 72.785 72.988,74.000 71.773,74.000 71.712 C 74.000 71.417,73.593 71.792,71.188 74.300 M118.200 79.200 C 119.506 80.520,120.665 81.600,120.775 81.600 C 120.885 81.600,119.906 80.520,118.600 79.200 C 117.294 77.880,116.135 76.800,116.025 76.800 C 115.915 76.800,116.894 77.880,118.200 79.200 M333.000 79.937 C 334.760 81.762,336.560 83.447,337.000 83.682 C 337.440 83.916,337.710 84.035,337.600 83.946 C 337.490 83.856,335.690 82.171,333.600 80.200 L 329.800 76.618 333.000 79.937 M63.988 81.100 L 61.400 83.800 64.100 81.212 C 65.585 79.788,66.800 78.573,66.800 78.512 C 66.800 78.217,66.393 78.592,63.988 81.100 M278.187 80.900 L 275.800 83.400 278.300 81.013 C 279.675 79.699,280.800 78.574,280.800 78.513 C 280.800 78.217,280.405 78.578,278.187 80.900 M343.000 89.600 C 344.083 90.700,345.060 91.600,345.170 91.600 C 345.280 91.600,344.483 90.700,343.400 89.600 C 342.317 88.500,341.340 87.600,341.230 87.600 C 341.120 87.600,341.917 88.500,343.000 89.600 M54.187 90.500 L 51.800 93.000 54.300 90.613 C 55.675 89.299,56.800 88.174,56.800 88.113 C 56.800 87.817,56.405 88.178,54.187 90.500 M136.400 96.600 C 137.817 98.030,139.067 99.200,139.177 99.200 C 139.287 99.200,138.217 98.030,136.800 96.600 C 135.383 95.170,134.133 94.000,134.023 94.000 C 133.913 94.000,134.983 95.170,136.400 96.600 M261.389 96.900 L 258.600 99.800 261.500 97.011 C 263.095 95.477,264.400 94.172,264.400 94.111 C 264.400 93.817,263.980 94.206,261.389 96.900 M51.200 103.000 C 52.617 104.430,53.867 105.600,53.977 105.600 C 54.087 105.600,53.017 104.430,51.600 103.000 C 50.183 101.570,48.933 100.400,48.823 100.400 C 48.713 100.400,49.783 101.570,51.200 103.000 M346.788 103.100 L 344.200 105.800 346.900 103.212 C 349.408 100.807,349.783 100.400,349.488 100.400 C 349.427 100.400,348.212 101.615,346.788 103.100 M143.600 103.400 C 145.017 104.830,146.267 106.000,146.377 106.000 C 146.487 106.000,145.417 104.830,144.000 103.400 C 142.583 101.970,141.333 100.800,141.223 100.800 C 141.113 100.800,142.183 101.970,143.600 103.400 M253.791 104.100 L 250.600 107.400 253.900 104.209 C 255.715 102.455,257.200 100.970,257.200 100.909 C 257.200 100.618,256.754 101.035,253.791 104.100 M58.400 109.800 C 59.817 111.230,61.067 112.400,61.177 112.400 C 61.287 112.400,60.217 111.230,58.800 109.800 C 57.383 108.370,56.133 107.200,56.023 107.200 C 55.913 107.200,56.983 108.370,58.400 109.800 M339.588 109.900 L 337.000 112.600 339.700 110.012 C 341.185 108.588,342.400 107.373,342.400 107.312 C 342.400 107.017,341.993 107.392,339.588 109.900 M153.400 112.800 C 154.706 114.120,155.865 115.200,155.975 115.200 C 156.085 115.200,155.106 114.120,153.800 112.800 C 152.494 111.480,151.335 110.400,151.225 110.400 C 151.115 110.400,152.094 111.480,153.400 112.800 M244.000 113.400 C 243.028 114.390,242.323 115.200,242.433 115.200 C 242.543 115.200,243.428 114.390,244.400 113.400 C 245.372 112.410,246.077 111.600,245.967 111.600 C 245.857 111.600,244.972 112.410,244.000 113.400 M75.800 126.400 C 76.883 127.500,77.860 128.400,77.970 128.400 C 78.080 128.400,77.283 127.500,76.200 126.400 C 75.117 125.300,74.140 124.400,74.030 124.400 C 73.920 124.400,74.717 125.300,75.800 126.400 M321.387 127.300 L 319.000 129.800 321.500 127.413 C 322.875 126.099,324.000 124.974,324.000 124.913 C 324.000 124.617,323.605 124.978,321.387 127.300 M170.200 128.800 C 171.728 130.340,173.069 131.600,173.179 131.600 C 173.289 131.600,172.128 130.340,170.600 128.800 C 169.072 127.260,167.731 126.000,167.621 126.000 C 167.511 126.000,168.672 127.260,170.200 128.800 M226.589 130.011 C 223.260 133.375,224.483 133.241,198.252 133.113 C 176.341 133.005,175.240 132.965,174.342 132.237 C 173.322 131.411,173.530 131.613,184.135 141.768 C 196.455 153.565,197.378 154.432,198.300 155.070 C 199.618 155.981,198.243 157.124,214.068 141.956 C 217.881 138.303,222.260 134.229,223.800 132.903 C 226.596 130.497,229.527 127.600,229.166 127.600 C 229.061 127.600,227.901 128.685,226.589 130.011 M81.449 131.680 C 82.386 133.196,82.268 133.200,40.351 133.200 L 0.000 133.200 0.000 199.800 L 0.000 266.400 41.154 266.400 C 75.453 266.400,82.487 266.308,83.377 265.846 C 84.341 265.346,89.971 260.303,94.817 255.600 C 95.837 254.610,99.884 250.740,103.811 247.000 C 107.738 243.260,111.602 239.570,112.397 238.800 C 117.397 233.960,123.878 227.779,129.594 222.400 C 133.218 218.990,137.086 215.325,138.191 214.254 C 139.296 213.184,142.855 209.769,146.100 206.665 C 150.686 202.279,152.000 200.794,152.000 200.000 C 152.000 199.206,150.685 197.720,146.100 193.333 C 142.855 190.228,139.381 186.902,138.380 185.943 C 137.378 184.985,133.508 181.320,129.780 177.800 C 122.780 171.193,120.404 168.926,107.137 156.200 C 104.843 154.000,99.914 149.328,96.183 145.817 C 92.452 142.306,87.562 137.609,85.315 135.379 C 83.068 133.149,81.328 131.484,81.449 131.680 M311.992 136.527 C 309.466 138.993,304.435 143.799,300.810 147.206 C 297.186 150.613,292.342 155.200,290.047 157.400 C 285.573 161.688,285.331 161.920,278.375 168.600 C 275.855 171.020,270.742 175.880,267.013 179.400 C 260.446 185.600,254.849 190.946,249.151 196.464 C 245.145 200.344,244.520 199.102,256.063 210.200 C 258.351 212.400,263.276 217.080,267.007 220.600 C 273.971 227.170,277.184 230.242,290.647 243.200 C 303.788 255.847,313.887 265.225,315.095 265.900 C 315.794 266.291,325.134 266.400,357.995 266.400 L 400.000 266.400 400.000 199.800 L 400.000 133.200 358.931 133.200 C 323.657 133.200,317.773 133.118,317.223 132.621 C 316.653 132.105,316.090 132.525,311.992 136.527 M195.517 247.481 C 193.693 249.175,190.310 252.395,188.000 254.636 C 185.690 256.878,182.428 260.036,180.750 261.656 C 179.073 263.275,177.605 265.005,177.488 265.500 L 177.275 266.400 199.200 266.400 L 221.125 266.400 220.917 265.500 C 220.803 265.005,219.065 263.009,217.055 261.063 C 207.581 251.897,205.983 250.365,202.883 247.483 C 198.869 243.752,199.531 243.752,195.517 247.481 " stroke="none" fill="#14dbdb" fill-rule="evenodd"></path></g></svg>